<svg xmlns="http://www.w3.org/2000/svg" width="200" height="200">
  <path fill="#6082bb" d="M0 0h200v200H0z"/>
  <path fill="#fefefe" d="M19 138.603c3.533-20.022 7.689-41.65 11.642-61.595 10.631.058 21.593-.175 32.212.285 8.258.899 14.647 8.68 14.246 16.92.554 11.993-7.794 23.655-19.496 26.617-7.171 1.795-14.618 1.169-21.94 1.295-1.01 5.224-2.054 11.074-3.065 16.298zm35.524-27.967c6.871-2.824 9.163-11.45 8.196-18.192-.723-3.074-2.891-4.371-5.504-4.914-4.933-.554-10.389-.629-14.698-.025l-4.504 24.335c5.324 1.121 11.313.29 16.51-1.204zm68.112 27.968c4.079-19.888 7.92-41.47 11.793-61.4 10.783.18 21.854-.425 32.592.651 7.597.941 14.062 7.495 13.933 15.317.791 13.072-8.706 26.499-22.076 28.14-6.42 1.091-12.95.738-19.432.813-.99 4.97-1.93 11.6-3.06 16.542zm35.38-27.782c7.226-3.145 10.16-12.44 8.237-19.652-2.968-4.963-9.772-3.899-14.722-4.063l-5.121.065-4.507 24.75c5.228.726 10.985.283 16.114-1.1zm-71.984-50.15l13.711.057-2.78 16.418c9.308-.09 18.389-1.467 26.131 3.457 5.512 4.969 2.417 12.82 1.735 19.071-1.261 7.418-2.526 15.207-4.01 22.582l-14.175.01c1.796-10.013 4.971-21.087 5.525-31.27-1.11-5.526-8.829-3.582-13.162-3.812l-4.13.037-7.218 35.024c-4.378-.013-9.194-.026-13.572-.04z"/>
</svg>
