<?xml version="1.0" encoding="UTF-8" standalone="no"?>
<svg
   xmlns:dc="http://purl.org/dc/elements/1.1/"
   xmlns:cc="http://creativecommons.org/ns#"
   xmlns:rdf="http://www.w3.org/1999/02/22-rdf-syntax-ns#"
   xmlns:svg="http://www.w3.org/2000/svg"
   xmlns="http://www.w3.org/2000/svg"
   xmlns:sodipodi="http://sodipodi.sourceforge.net/DTD/sodipodi-0.dtd"
   xmlns:inkscape="http://www.inkscape.org/namespaces/inkscape"
   viewBox="0 0 200 200"
   version="1.1"
   id="svg6"
   sodipodi:docname="Unofficial_JavaScript_logo_2.svg"
   width="200"
   height="200"
   inkscape:version="0.92.4 (unknown)">
  <metadata
     id="metadata12">
    <rdf:RDF>
      <cc:Work
         rdf:about="">
        <dc:format>image/svg+xml</dc:format>
        <dc:type
           rdf:resource="http://purl.org/dc/dcmitype/StillImage" />
        <dc:title></dc:title>
      </cc:Work>
    </rdf:RDF>
  </metadata>
  <defs
     id="defs10" />
  <sodipodi:namedview
     pagecolor="#ffffff"
     bordercolor="#666666"
     borderopacity="1"
     objecttolerance="10"
     gridtolerance="10"
     guidetolerance="10"
     inkscape:pageopacity="0"
     inkscape:pageshadow="2"
     inkscape:window-width="1085"
     inkscape:window-height="925"
     id="namedview8"
     showgrid="false"
     fit-margin-top="0"
     fit-margin-left="0"
     fit-margin-right="0"
     fit-margin-bottom="0"
     inkscape:zoom="0.37460317"
     inkscape:cx="320.33898"
     inkscape:cy="315"
     inkscape:window-x="0"
     inkscape:window-y="0"
     inkscape:window-maximized="0"
     inkscape:current-layer="svg6" />
  <rect
     width="200"
     height="200"
     id="rect2"
     x="0"
     y="0"
     style="fill:#f7df1e;stroke-width:1" />
  <path
     d="m 134.34921,156.25079 c 4.02857,6.57778 9.26984,11.4127 18.53968,11.4127 7.7873,0 12.7619,-3.89206 12.7619,-9.26984 0,-6.44444 -5.11111,-8.72698 -13.68253,-12.47619 l -4.69842,-2.01587 c -13.5619,-5.77778 -22.57143,-13.01587 -22.57143,-28.31746 0,-14.09524 10.73969,-24.8254 27.52381,-24.8254 11.94921,0 20.53969,4.15873 26.73016,15.04762 l -14.63492,9.39683 c -3.22222,-5.77778 -6.69841,-8.05397 -12.09524,-8.05397 -5.50476,0 -8.99365,3.49206 -8.99365,8.05397 0,5.63809 3.49207,7.92063 11.55556,11.41269 l 4.69841,2.0127 c 15.96826,6.84762 24.98413,13.82857 24.98413,29.52381 0,16.92064 -13.29207,26.19048 -31.14286,26.19048 -17.45397,0 -28.73016,-8.31746 -34.24762,-19.21905 z m -66.390479,1.62858 c 2.952381,5.23809 5.638095,9.66666 12.095238,9.66666 6.174603,0 10.069841,-2.41587 10.069841,-11.80952 V 91.83175 h 18.79365 v 64.15873 c 0,19.46032 -11.409523,28.31746 -28.063491,28.31746 -15.047619,0 -23.761905,-7.7873 -28.193651,-17.16667 z"
     id="path4"
     inkscape:connector-curvature="0"
     style="stroke-width:1" />
</svg>
