<?xml version="1.0" encoding="UTF-8" standalone="no"?>
<svg
   xmlns:dc="http://purl.org/dc/elements/1.1/"
   xmlns:cc="http://creativecommons.org/ns#"
   xmlns:rdf="http://www.w3.org/1999/02/22-rdf-syntax-ns#"
   xmlns:svg="http://www.w3.org/2000/svg"
   xmlns="http://www.w3.org/2000/svg"
   xmlns:sodipodi="http://sodipodi.sourceforge.net/DTD/sodipodi-0.dtd"
   xmlns:inkscape="http://www.inkscape.org/namespaces/inkscape"
   xml:space="preserve"
   viewBox="19 19 147.21941 147.22222"
   height="200"
   width="199.99619"
   y="0px"
   x="0px"
   id="Layer_1"
   version="1.1"
   sodipodi:docname="Rust_programming_language_black_logo.svg"
   inkscape:version="0.92.4 (unknown)"><metadata
     id="metadata8"><rdf:RDF><cc:Work
         rdf:about=""><dc:format>image/svg+xml</dc:format><dc:type
           rdf:resource="http://purl.org/dc/dcmitype/StillImage" /><dc:title></dc:title></cc:Work></rdf:RDF></metadata><defs
     id="defs6" /><sodipodi:namedview
     pagecolor="#ffffff"
     bordercolor="#666666"
     borderopacity="1"
     objecttolerance="10"
     gridtolerance="10"
     guidetolerance="10"
     inkscape:pageopacity="0"
     inkscape:pageshadow="2"
     inkscape:window-width="1195"
     inkscape:window-height="881"
     id="namedview4"
     showgrid="false"
     fit-margin-top="0"
     fit-margin-left="0"
     fit-margin-right="0"
     fit-margin-bottom="0"
     inkscape:zoom="1.6388889"
     inkscape:cx="72.312869"
     inkscape:cy="71.093887"
     inkscape:window-x="0"
     inkscape:window-y="0"
     inkscape:window-maximized="0"
     inkscape:current-layer="Layer_1" /><path
     id="path3"
     d="m 165.2137,90.805049 -6.18056,-3.825927 c -0.0521,-0.602021 -0.11112,-1.202635 -0.17583,-1.800436 l 5.31129,-4.954013 c 0.54013,-0.503559 0.78206,-1.249052 0.63578,-1.970633 -0.14207,-0.724394 -0.64985,-1.320789 -1.34048,-1.578195 l -6.78961,-2.538896 c -0.1702,-0.587955 -0.34884,-1.17169 -0.5317,-1.752612 l 4.23525,-5.882363 c 0.43182,-0.597801 0.52044,-1.375645 0.23912,-2.057842 -0.28132,-0.679383 -0.896,-1.166063 -1.62321,-1.285624 l -7.15954,-1.164657 c -0.27851,-0.542944 -0.56827,-1.077448 -0.86084,-1.607733 l 3.0087,-6.603943 c 0.30804,-0.672351 0.24475,-1.454415 -0.16598,-2.064875 -0.40931,-0.613274 -1.10276,-0.971955 -1.84263,-0.943823 l -7.26645,0.253187 c -0.37556,-0.469802 -0.75815,-0.935383 -1.14778,-1.392525 l 1.66963,-7.077965 c 0.16879,-0.718767 -0.0436,-1.471294 -0.56686,-1.993139 -0.51903,-0.520438 -1.27296,-0.735647 -1.99173,-0.566856 l -7.07656,1.668217 c -0.45855,-0.388219 -0.92413,-0.772218 -1.39534,-1.147778 l 0.2546,-7.266448 c 0.0281,-0.735647 -0.33055,-1.434722 -0.94383,-1.842634 -0.61468,-0.410724 -1.39252,-0.472614 -2.06347,-0.167384 l -6.60253,3.010104 c -0.5331,-0.292571 -1.06761,-0.582328 -1.60774,-0.86224 l -1.16747,-7.160953 c -0.11815,-0.725801 -0.60483,-1.341888 -1.28562,-1.623206 -0.67938,-0.282724 -1.45864,-0.191296 -2.05644,0.239121 l -5.88658,4.235244 c -0.57951,-0.184263 -1.16184,-0.361494 -1.7498,-0.530284 l -2.53889,-6.79102 c -0.25741,-0.692043 -0.8538,-1.199822 -1.5782,-1.343294 -0.72299,-0.142066 -1.46707,0.09846 -1.96923,0.635779 l -4.95401,5.315506 c -0.597799,-0.06611 -1.199819,-0.126593 -1.800433,-0.175824 L 94.4228,20.007119 C 94.035988,19.381186 93.350978,19 92.613925,19 c -0.737054,0 -1.422064,0.381186 -1.807469,1.007119 l -3.825927,6.181966 c -0.602021,0.04923 -1.204042,0.109714 -1.801843,0.175824 l -4.955419,-5.315506 c -0.502153,-0.537318 -1.247646,-0.777845 -1.969227,-0.635779 -0.724394,0.144878 -1.320789,0.651251 -1.578195,1.343294 l -2.538896,6.79102 c -0.587955,0.16879 -1.170283,0.347427 -1.751205,0.530284 l -5.885176,-4.235244 c -0.597801,-0.431824 -1.377052,-0.523252 -2.057842,-0.239121 -0.679383,0.281318 -1.16747,0.897405 -1.285624,1.623206 l -1.16747,7.160953 c -0.540131,0.279912 -1.074635,0.568263 -1.607733,0.86224 l -6.602537,-3.010104 c -0.670944,-0.306637 -1.453008,-0.24334 -2.063469,0.167384 -0.613273,0.407912 -0.971954,1.106987 -0.943822,1.842634 l 0.253186,7.266448 c -0.469801,0.37556 -0.935382,0.759559 -1.395338,1.147778 l -7.076557,-1.668217 c -0.718768,-0.167384 -1.472701,0.04642 -1.993139,0.566856 -0.523252,0.521845 -0.735647,1.274371 -0.566857,1.993139 l 1.66681,7.077965 c -0.386812,0.458548 -0.769405,0.922723 -1.144964,1.392525 l -7.266448,-0.253187 c -0.732834,-0.0211 -1.433316,0.330549 -1.842634,0.943823 -0.410724,0.61046 -0.472614,1.392524 -0.167384,2.064875 l 3.010104,6.603943 c -0.292571,0.530285 -0.582328,1.064789 -0.86224,1.607733 l -7.159547,1.164657 c -0.727207,0.118154 -1.340481,0.604834 -1.623205,1.285624 -0.281319,0.682197 -0.18989,1.460041 0.23912,2.057842 l 4.235245,5.882363 c -0.184264,0.580922 -0.362901,1.164657 -0.531692,1.752612 l -6.79102,2.538896 c -0.689229,0.257406 -1.197008,0.853801 -1.34048,1.578195 -0.143473,0.722987 0.09705,1.467074 0.635779,1.970633 l 5.312693,4.954013 c -0.06611,0.597801 -0.125187,1.199822 -0.175824,1.800436 l -6.18056,3.825927 C 19.381186,91.191861 19,91.875464 19,92.613924 c 0,0.73846 0.381186,1.422063 1.007119,1.807469 l 6.18056,3.825927 c 0.05064,0.602021 0.109714,1.202635 0.175824,1.80044 l -5.312693,4.95542 c -0.538725,0.50215 -0.779252,1.24764 -0.635779,1.96922 0.143472,0.7244 0.651251,1.31938 1.34048,1.5782 l 6.79102,2.53889 c 0.168791,0.58796 0.347428,1.17169 0.531692,1.75261 l -4.235245,5.88377 c -0.430417,0.59921 -0.521845,1.37706 -0.23912,2.05644 0.282724,0.6822 0.897404,1.16888 1.624612,1.28562 l 7.15814,1.16466 c 0.279912,0.54295 0.566856,1.07745 0.86224,1.61055 l -3.010104,6.60113 c -0.306637,0.67094 -0.24334,1.4516 0.167384,2.06487 0.410725,0.61468 1.1098,0.97336 1.842634,0.94383 l 7.263634,-0.2546 c 0.378373,0.47262 0.759559,0.93539 1.147778,1.39534 l -1.66681,7.07937 c -0.16879,0.71736 0.0436,1.46707 0.566857,1.98892 0.519031,0.52466 1.274371,0.73424 1.993139,0.56545 l 7.076557,-1.66681 c 0.459956,0.39103 0.925537,0.77081 1.395338,1.14496 l -0.253186,7.26786 c -0.02813,0.73564 0.330549,1.43331 0.943822,1.84404 0.610461,0.40932 1.392525,0.47121 2.063469,0.16457 l 6.602537,-3.0087 c 0.531691,0.29539 1.066195,0.58233 1.607733,0.86224 l 1.16747,7.15674 c 0.118154,0.72861 0.604834,1.3447 1.285624,1.62461 0.679383,0.28272 1.460041,0.19129 2.057842,-0.23772 l 5.882363,-4.23805 c 0.580921,0.18426 1.164657,0.3643 1.752612,0.53309 l 2.538896,6.78821 c 0.257406,0.68923 0.8538,1.19982 1.578195,1.34048 0.722987,0.14629 1.467074,-0.0956 1.969226,-0.63578 l 4.95542,-5.31269 c 0.597801,0.0689 1.199821,0.12659 1.801842,0.18004 l 3.825927,6.18056 c 0.385406,0.62312 1.070415,1.00712 1.807469,1.00712 0.737054,0 1.422063,-0.38259 1.808876,-1.00712 l 3.825926,-6.18056 c 0.602021,-0.0534 1.202631,-0.11112 1.80044,-0.18004 l 4.95401,5.31269 c 0.50215,0.54013 1.24764,0.78207 1.96922,0.63578 0.7244,-0.14206 1.32079,-0.65125 1.5782,-1.34048 l 2.5389,-6.78821 c 0.58795,-0.16879 1.17169,-0.34883 1.75261,-0.53309 l 5.88377,4.23805 c 0.5978,0.42901 1.37705,0.52044 2.05643,0.23772 0.68079,-0.27991 1.16747,-0.89741 1.28563,-1.62461 l 1.16747,-7.15674 c 0.54013,-0.27991 1.07463,-0.57107 1.60773,-0.86224 l 6.60254,3.0087 c 0.67094,0.30664 1.4516,0.24475 2.06347,-0.16457 0.61327,-0.41073 0.97054,-1.10699 0.94382,-1.84404 l -0.25319,-7.26786 c 0.4698,-0.37556 0.93539,-0.75393 1.39393,-1.14496 l 7.07656,1.66681 c 0.71877,0.16879 1.4727,-0.0408 1.99173,-0.56545 0.52326,-0.52185 0.73565,-1.27156 0.56686,-1.98892 l -1.66681,-7.07937 c 0.38822,-0.45995 0.77081,-0.92272 1.14496,-1.39534 l 7.26645,0.2546 c 0.73284,0.0295 1.43332,-0.32915 1.84264,-0.94383 0.41072,-0.61327 0.47402,-1.39393 0.16597,-2.06487 l -3.00869,-6.60113 c 0.29397,-0.5331 0.58233,-1.0676 0.86083,-1.61055 l 7.15955,-1.16466 c 0.72861,-0.11674 1.34188,-0.60342 1.6232,-1.28562 0.28132,-0.67938 0.19271,-1.45723 -0.23912,-2.05644 l -4.23524,-5.88377 c 0.18285,-0.58092 0.36149,-1.16465 0.53169,-1.75261 l 6.78961,-2.53889 c 0.69064,-0.25882 1.19982,-0.8538 1.34048,-1.5782 0.14629,-0.72299 -0.0957,-1.46707 -0.63578,-1.96922 l -5.31128,-4.95542 c 0.0647,-0.597805 0.12378,-1.199826 0.17582,-1.80044 l 6.18056,-3.825927 c 0.62593,-0.385406 1.00712,-1.070415 1.00712,-1.807469 0,-0.737053 -0.37978,-1.422063 -1.00571,-1.808875 z m -41.36643,51.271641 c -2.36026,-0.50919 -3.86109,-2.83569 -3.35472,-5.20298 0.50497,-2.36448 2.83006,-3.86953 5.18891,-3.36035 2.36026,0.50497 3.86391,2.83569 3.35754,5.19876 -0.50638,2.36307 -2.83288,3.86953 -5.19173,3.36457 z m -2.10004,-14.20376 c -2.15349,-0.46136 -4.27182,0.90866 -4.73318,3.06637 l -2.19428,10.23998 c -6.77133,3.0734 -14.29096,4.781 -22.210065,4.781 -8.100556,0 -15.783354,-1.79199 -22.675649,-4.99621 l -2.192875,-10.23998 c -0.461362,-2.15489 -2.579687,-3.52773 -4.731771,-3.06496 l -9.040158,1.9411 c -1.678063,-1.7273 -3.239379,-3.56712 -4.674101,-5.50962 h 43.986904 c 0.497933,0 0.829889,-0.09 0.829889,-0.54294 v -15.55971 c 0,-0.45292 -0.331956,-0.54294 -0.829889,-0.54294 H 80.417377 v -9.863017 h 13.913995 c 1.270151,0 6.791018,0.3629 8.556288,7.419767 0.55279,2.17037 1.76668,9.23005 2.59657,11.49044 0.82707,2.53467 4.19445,7.5984 7.78266,7.5984 h 21.91891 c 0.24897,0 0.51481,-0.0281 0.79472,-0.0788 -1.52052,2.06628 -3.18874,4.02144 -4.98496,5.8486 z m -60.83786,13.98996 c -2.360259,0.50918 -4.683947,-0.99587 -5.191726,-3.36035 -0.504966,-2.3687 0.995866,-4.69379 3.356125,-5.20298 2.36026,-0.50496 4.685354,1.00009 5.191727,3.36457 0.504966,2.36307 -0.997273,4.69238 -3.356126,5.19876 z M 44.222985,74.198839 c 0.978987,2.209754 -0.01688,4.799287 -2.22382,5.776868 -2.206941,0.980393 -4.789442,-0.01688 -5.768429,-2.22804 -0.978987,-2.211161 0.01688,-4.796474 2.22382,-5.776868 2.208348,-0.978987 4.789442,0.01688 5.768429,2.22804 z m -5.12843,12.157163 9.417125,-4.184607 c 2.011424,-0.893185 2.920082,-3.250631 2.026897,-5.266276 l -1.939689,-4.38575 H 56.22683 V 106.90207 H 40.837321 c -1.334855,-4.69238 -2.050809,-9.64499 -2.050809,-14.763573 0,-1.953755 0.105494,-3.885004 0.308043,-5.782495 z M 80.42019,83.016756 V 72.88227 h 18.164712 c 0.938199,0 6.625038,1.084481 6.625038,5.336605 0,3.530543 -4.36183,4.796474 -7.94864,4.796474 H 80.42019 Z m 66.01411,9.121741 c 0,1.3447 -0.0492,2.675335 -0.14769,3.996124 h -5.52227 c -0.55279,0 -0.77503,0.3629 -0.77503,0.904438 v 2.536083 c 0,5.969568 -3.36598,7.267858 -6.3156,7.598408 -2.80896,0.31648 -5.92315,-1.17591 -6.30715,-2.89477 -1.65696,-9.320069 -4.4181,-11.310395 -8.77853,-14.749509 5.41115,-3.436301 11.04173,-8.505654 11.04173,-15.291048 0,-7.326931 -5.02293,-11.941955 -8.44657,-14.205159 -4.80351,-3.166236 -10.12183,-3.800608 -11.55655,-3.800608 H 52.514837 c 7.744688,-8.6435 18.240668,-14.766389 30.112294,-16.994429 l 6.731943,7.062492 c 1.521931,1.593667 4.042541,1.652744 5.634802,0.129406 l 7.532294,-7.204557 c 15.78335,2.938368 29.14596,12.763404 36.84705,26.242762 l -5.15656,11.646571 c -0.89037,2.015645 0.0183,4.373091 2.0283,5.266276 l 9.92772,4.409662 c 0.1716,1.762458 0.26162,3.543202 0.26162,5.347858 z M 89.361887,33.230478 c 1.744172,-1.67103 4.510936,-1.60492 6.180559,0.142066 1.66681,1.751205 1.603514,4.520782 -0.144878,6.190405 -1.744173,1.67103 -4.510937,1.606327 -6.18056,-0.143472 -1.665403,-1.748392 -1.602107,-4.517969 0.144879,-6.188999 z m 51.171773,41.180756 c 0.97758,-2.209754 3.56008,-3.207027 5.76702,-2.226633 2.20694,0.978987 3.20281,3.567114 2.22382,5.776868 -0.97758,2.21116 -3.56008,3.208433 -5.76843,2.22804 -2.20413,-0.978988 -3.19999,-3.565708 -2.22241,-5.778275 z"
     inkscape:connector-curvature="0"
     style="stroke-width:1" /></svg>